<?xml version="1.0" standalone="no"?>
<!DOCTYPE svg PUBLIC "-//W3C//DTD SVG 20010904//EN"
 "http://www.w3.org/TR/2001/REC-SVG-20010904/DTD/svg10.dtd">
<svg version="1.0" xmlns="http://www.w3.org/2000/svg"
 width="1024.000000pt" height="1024.000000pt" viewBox="0 0 1024.000000 1024.000000"
 preserveAspectRatio="xMidYMid meet">
<metadata>
Created by potrace 1.14, written by Peter Selinger 2001-2017
</metadata>
<g transform="translate(0.000000,1024.000000) scale(0.100000,-0.100000)"
fill="#000000" stroke="none">
<path d="M4735 10213 c-11 -2 -87 -10 -170 -18 -82 -8 -166 -17 -185 -20 -19
-3 -66 -10 -105 -16 -66 -10 -209 -39 -300 -61 -22 -5 -51 -11 -65 -13 -24 -4
-56 -12 -137 -36 -21 -6 -59 -16 -85 -22 -25 -7 -50 -15 -54 -20 -4 -4 -16 -7
-26 -7 -10 0 -26 -4 -36 -9 -9 -6 -44 -18 -77 -27 -33 -10 -64 -20 -70 -24 -5
-4 -35 -15 -65 -25 -30 -9 -74 -25 -96 -35 -23 -11 -55 -22 -70 -26 -16 -4
-44 -16 -62 -26 -18 -10 -37 -18 -42 -18 -6 0 -47 -18 -92 -40 -46 -22 -89
-40 -95 -40 -7 0 -13 -4 -13 -10 0 -5 -5 -10 -12 -10 -12 0 -179 -79 -188 -89
-3 -3 -18 -13 -35 -21 -16 -8 -64 -35 -105 -61 -41 -25 -80 -48 -85 -50 -9 -4
-126 -74 -180 -109 -25 -16 -120 -82 -165 -115 -15 -11 -40 -29 -56 -40 -16
-11 -36 -27 -46 -35 -9 -8 -38 -31 -63 -50 -48 -35 -157 -127 -250 -209 -142
-126 -463 -468 -565 -601 -19 -25 -38 -49 -43 -55 -4 -5 -21 -28 -38 -50 -16
-22 -35 -47 -42 -55 -154 -197 -411 -663 -554 -1005 -14 -33 -31 -73 -38 -90
-7 -16 -20 -50 -30 -75 -9 -25 -21 -54 -25 -65 -5 -11 -16 -42 -25 -70 -10
-27 -21 -59 -25 -70 -5 -11 -16 -45 -25 -75 -10 -30 -21 -63 -26 -72 -5 -10
-9 -25 -9 -33 0 -8 -4 -23 -10 -33 -5 -9 -14 -37 -19 -62 -5 -25 -15 -63 -21
-85 -11 -37 -25 -96 -51 -205 -5 -25 -14 -67 -19 -95 -5 -27 -16 -88 -25 -135
-33 -174 -59 -378 -76 -605 -12 -167 -5 -743 10 -837 5 -31 13 -99 17 -152 4
-53 11 -99 15 -102 5 -3 9 -21 9 -40 0 -19 4 -54 10 -77 5 -23 16 -82 25 -132
9 -49 20 -106 25 -125 23 -87 53 -207 57 -233 3 -15 9 -30 14 -33 5 -3 9 -14
9 -24 0 -17 69 -241 91 -297 20 -50 28 -71 54 -143 15 -41 41 -104 57 -140 16
-36 33 -74 38 -85 35 -85 95 -210 151 -312 67 -121 82 -150 97 -178 9 -16 22
-36 29 -43 7 -8 18 -23 24 -35 29 -55 216 -330 271 -397 16 -19 32 -39 36 -45
128 -172 424 -494 549 -598 34 -29 103 -87 155 -131 118 -99 142 -119 203
-164 27 -20 56 -43 63 -50 7 -6 17 -12 21 -12 4 0 16 -8 27 -18 37 -34 467
-312 483 -312 5 0 11 -3 13 -7 5 -13 357 -193 377 -193 6 0 11 -4 11 -10 0 -5
4 -10 10 -10 5 0 33 -10 62 -23 29 -13 73 -32 98 -41 25 -10 63 -26 85 -36 22
-10 63 -25 90 -35 28 -9 59 -20 70 -24 11 -4 61 -20 110 -35 50 -15 97 -31
105 -36 9 -4 36 -11 60 -15 25 -4 50 -11 55 -15 6 -4 21 -10 35 -13 25 -6 120
-29 195 -48 38 -10 111 -25 165 -34 14 -2 54 -9 90 -16 76 -13 151 -23 275
-38 50 -6 140 -16 200 -23 144 -17 730 -17 840 0 44 6 127 16 185 22 149 14
242 26 340 44 47 9 103 19 125 22 22 3 51 9 65 14 14 4 61 16 105 25 44 9 89
20 100 25 11 4 49 16 85 25 36 9 76 20 90 25 14 4 52 16 85 25 33 9 70 21 83
26 54 22 72 29 167 64 55 21 115 44 133 51 17 8 47 20 65 28 17 7 47 20 65 27
17 8 32 17 32 21 0 5 6 8 13 8 14 0 304 145 412 206 112 64 326 195 372 228
23 17 74 54 113 81 39 28 80 57 90 65 10 8 39 31 65 50 190 144 381 321 589
545 267 289 588 746 723 1030 8 17 19 39 25 50 22 38 68 137 114 243 8 17 21
47 29 66 8 19 15 37 15 40 0 3 11 29 24 58 13 29 40 98 61 153 21 55 41 109
46 120 8 20 44 136 59 190 19 69 62 232 70 265 8 31 16 72 60 285 6 28 15 88
21 135 6 47 15 119 20 160 50 403 30 1150 -41 1490 -5 25 -14 70 -19 100 -16
87 -42 212 -51 250 -5 19 -16 67 -25 105 -10 39 -21 79 -25 90 -4 11 -16 47
-25 80 -23 79 -123 382 -139 420 -7 17 -21 50 -31 75 -10 25 -28 68 -41 96
-13 28 -24 56 -24 62 0 5 -9 27 -19 49 -11 21 -54 110 -97 198 -86 176 -163
316 -242 442 -29 46 -52 87 -52 92 0 5 -3 11 -8 13 -4 2 -27 35 -52 73 -38 60
-62 94 -98 140 -5 6 -17 24 -28 40 -10 17 -21 32 -24 35 -3 3 -28 34 -55 70
-27 36 -62 80 -77 98 -37 44 -36 67 5 82 17 7 51 21 74 31 24 11 46 19 49 19
3 0 22 7 42 16 201 88 242 132 242 257 0 47 -6 70 -27 106 -14 25 -34 51 -42
58 -22 17 -152 83 -164 83 -9 0 -44 15 -133 56 -28 13 -56 24 -63 24 -6 0 -19
4 -29 9 -26 14 -129 60 -227 101 -11 4 -38 15 -60 25 -22 9 -49 20 -60 25 -11
4 -42 18 -70 30 -27 12 -65 28 -82 36 -149 64 -217 95 -256 114 -22 11 -43 20
-48 20 -5 0 -46 18 -93 40 -46 22 -87 40 -90 40 -7 0 -100 41 -181 80 -68 33
-161 74 -220 99 -66 26 -177 21 -261 -12 -38 -16 -76 -32 -84 -36 -8 -5 -24
-5 -35 -1 -22 9 -99 38 -130 50 -48 19 -101 42 -117 50 -10 6 -26 10 -36 10
-10 0 -22 4 -28 9 -5 4 -34 16 -64 25 -54 16 -87 29 -122 47 -10 5 -24 9 -33
9 -18 0 -104 27 -127 40 -10 6 -24 10 -33 10 -8 0 -34 6 -57 14 -86 27 -163
50 -173 51 -5 1 -23 5 -40 9 -126 32 -154 38 -180 41 -17 2 -59 9 -95 16 -285
51 -506 68 -870 67 -179 0 -334 -2 -345 -5z m680 -333 c100 -8 201 -21 413
-50 105 -14 504 -107 557 -130 11 -5 47 -16 80 -26 33 -9 65 -20 70 -24 6 -3
37 -15 70 -25 33 -11 65 -22 70 -26 6 -4 25 -10 43 -14 37 -8 42 -21 10 -30
-13 -4 -36 -13 -53 -20 -16 -7 -136 -57 -265 -110 -129 -54 -253 -105 -275
-115 -22 -9 -60 -25 -85 -35 -25 -10 -59 -24 -77 -31 -17 -8 -34 -14 -37 -14
-3 0 -30 -11 -60 -25 -30 -14 -58 -25 -61 -25 -3 0 -36 -14 -73 -31 -37 -17
-90 -41 -117 -54 -114 -52 -161 -124 -152 -233 4 -51 11 -71 34 -100 63 -78
88 -91 423 -222 125 -49 258 -105 285 -120 l30 -17 6 -489 c5 -477 6 -491 28
-554 48 -136 160 -267 296 -348 107 -63 265 -119 490 -173 207 -50 511 -64
705 -34 117 18 324 66 415 97 237 79 429 228 502 386 48 104 53 159 53 565 0
216 4 377 9 377 23 0 265 -344 373 -530 47 -81 71 -124 139 -250 25 -46 98
-200 104 -221 4 -13 16 -36 26 -51 11 -14 19 -31 19 -36 0 -6 18 -50 40 -97
22 -47 40 -90 40 -96 0 -5 4 -17 9 -27 19 -34 41 -90 41 -101 0 -6 4 -19 10
-29 18 -33 115 -341 145 -462 9 -36 21 -81 26 -100 4 -19 16 -69 24 -110 9
-41 20 -91 26 -111 5 -20 9 -52 9 -71 0 -19 3 -38 8 -42 4 -4 13 -56 20 -114
27 -229 31 -258 36 -287 3 -16 10 -175 16 -353 11 -322 9 -396 -21 -647 -35
-293 -94 -583 -166 -810 -30 -97 -91 -272 -103 -300 -5 -11 -32 -78 -61 -150
-75 -188 -213 -466 -324 -650 -189 -314 -385 -561 -690 -869 -223 -224 -525
-458 -810 -626 -77 -45 -165 -97 -195 -115 -138 -82 -513 -259 -680 -319 -41
-15 -84 -32 -95 -36 -11 -5 -58 -21 -105 -35 -47 -15 -96 -30 -110 -35 -71
-25 -411 -103 -540 -125 -52 -9 -117 -21 -145 -26 -313 -60 -913 -67 -1305
-15 -395 52 -938 201 -1275 350 -33 15 -69 31 -80 35 -137 55 -429 213 -620
334 l-34 22 0 725 0 725 47 35 c199 148 382 215 682 250 143 17 413 7 540 -19
25 -6 81 -17 125 -26 44 -10 100 -23 125 -30 249 -75 439 -143 605 -220 44
-20 98 -45 121 -55 321 -145 566 -272 724 -375 129 -86 164 -104 209 -111 41
-7 108 17 147 52 24 23 54 84 54 113 0 26 6 26 50 0 77 -48 254 -132 365 -174
176 -67 262 -94 480 -149 11 -3 58 -12 105 -20 47 -8 113 -20 148 -26 157 -28
709 -29 832 -1 25 5 74 15 110 22 89 16 301 75 355 99 11 4 52 20 90 34 275
101 456 252 518 431 16 47 17 174 15 2041 -3 1943 -3 1992 -22 2013 -34 37
-72 26 -148 -44 -23 -22 -66 -55 -93 -72 -57 -36 -327 -173 -342 -173 -5 0
-29 -9 -52 -21 -24 -11 -59 -23 -77 -26 -19 -3 -37 -10 -40 -14 -3 -5 -14 -9
-25 -9 -10 0 -27 -4 -37 -9 -16 -10 -83 -23 -202 -42 -118 -18 -351 -30 -480
-24 -157 8 -400 43 -510 73 -19 6 -62 18 -95 27 -33 10 -70 20 -83 22 -12 3
-25 9 -28 14 -3 5 -12 9 -20 9 -35 0 -302 108 -469 191 -288 141 -354 179
-490 279 -150 110 -255 178 -440 283 -255 146 -632 303 -910 381 -33 9 -74 21
-91 26 -17 6 -38 10 -47 10 -10 0 -25 4 -35 10 -9 5 -46 14 -82 20 -36 6 -87
15 -115 20 -177 34 -301 44 -550 44 -243 1 -414 -10 -505 -34 -19 -5 -62 -14
-95 -20 -90 -18 -262 -68 -308 -90 -23 -11 -44 -20 -49 -20 -16 0 -9 107 8
121 24 20 69 90 84 129 34 95 50 285 29 355 -28 95 -45 134 -87 200 -54 86
-99 134 -177 190 -140 100 -241 130 -412 123 -65 -3 -127 -10 -138 -15 -11 -6
-38 -16 -60 -23 -88 -27 -200 -112 -276 -210 -39 -50 -80 -130 -104 -204 -25
-78 -22 -312 5 -366 4 -8 18 -37 31 -65 13 -27 39 -66 57 -86 l32 -37 7 -2708
6 -2709 -23 20 c-34 30 -157 185 -241 305 -95 135 -229 337 -229 345 0 4 -8
19 -19 33 -33 48 -221 410 -221 426 0 3 -11 29 -24 58 -13 29 -32 76 -42 103
-10 28 -21 55 -24 60 -4 6 -10 19 -13 30 -3 11 -24 72 -47 135 -49 137 -62
176 -85 255 -9 33 -21 71 -25 85 -12 37 -45 179 -69 295 -13 59 -29 169 -41
275 -4 41 -13 125 -20 185 -12 110 -16 794 -5 845 3 14 10 88 16 165 5 77 14
156 19 176 6 20 10 53 10 74 0 21 4 52 9 69 5 17 16 72 25 121 19 102 64 300
76 330 5 11 17 54 28 95 42 157 124 393 186 534 8 17 21 47 29 66 145 330 273
570 426 798 42 62 83 124 91 136 8 12 40 51 70 87 31 35 83 100 115 144 99
132 457 478 673 651 278 221 661 453 1015 613 37 17 70 31 73 31 3 0 20 6 37
14 119 53 343 136 437 162 30 8 69 19 85 24 39 11 150 40 195 50 283 66 416
88 665 110 72 7 137 13 145 14 41 8 509 4 605 -4z m2160 -422 c39 -16 84 -36
100 -43 17 -7 111 -47 210 -88 99 -41 206 -86 238 -101 32 -14 60 -26 63 -26
3 0 30 -11 60 -25 30 -14 56 -25 59 -25 2 0 33 -13 68 -30 36 -16 68 -30 71
-30 3 0 36 -14 73 -31 38 -17 109 -47 158 -66 50 -19 108 -43 130 -52 22 -10
56 -24 75 -31 19 -7 39 -17 45 -22 5 -4 17 -8 27 -8 10 0 18 -4 18 -8 0 -12
-61 -41 -260 -122 -96 -40 -187 -79 -202 -86 l-28 -14 -2 -578 -3 -577 -95 -3
c-52 -2 -105 0 -117 3 l-23 5 0 650 0 649 -32 24 c-18 13 -134 66 -258 116
-124 51 -238 98 -255 106 -131 58 -182 75 -222 75 -77 0 -118 -33 -143 -117
-10 -34 -10 -49 4 -91 23 -67 73 -111 159 -141 103 -34 507 -197 519 -209 5
-5 8 -27 6 -48 -3 -43 21 -31 -303 -152 -213 -80 -231 -85 -271 -77 -45 8
-138 38 -205 65 -30 12 -67 28 -84 35 -16 6 -46 18 -65 25 -19 6 -44 16 -55
21 -11 4 -78 31 -150 59 -71 28 -159 63 -195 77 -36 14 -84 34 -107 44 -24 11
-45 19 -48 19 -7 0 -329 126 -380 149 -22 10 -82 35 -133 56 -51 21 -91 43
-89 48 1 5 36 23 77 38 41 16 84 33 95 38 11 6 79 33 150 62 72 28 144 57 162
65 17 8 36 14 42 14 6 0 19 4 29 9 9 6 87 38 172 71 222 89 639 258 680 277
59 28 114 41 140 36 14 -3 57 -19 95 -35z m-5460 -1427 c77 -36 129 -81 166
-145 25 -44 29 -61 29 -127 0 -159 -75 -261 -225 -304 -177 -52 -354 52 -401
237 -19 73 -12 132 23 203 78 158 244 213 408 136z m4527 -207 c53 -20 163
-62 203 -79 17 -7 55 -21 85 -32 30 -11 87 -32 125 -47 94 -35 277 -95 343
-112 96 -25 135 -18 435 85 98 34 183 61 188 61 5 0 9 -64 9 -145 0 -159 15
-243 52 -282 12 -12 20 -25 17 -27 -8 -7 -160 -56 -206 -67 -27 -6 -57 -13
-68 -16 -112 -29 -398 -42 -510 -23 -286 48 -575 148 -669 230 -60 53 -66 78
-65 270 0 155 4 200 15 200 2 0 23 -7 46 -16z m-4474 -5011 l-3 -1457 -93 78
c-51 42 -124 107 -162 143 l-70 65 0 2760 0 2759 48 -8 c72 -12 202 -7 242 10
l35 15 3 -1454 c1 -800 1 -2110 0 -2911z m1585 4276 c394 -59 526 -93 852
-219 192 -74 333 -142 570 -274 142 -78 287 -168 338 -209 16 -13 17 -61 17
-746 0 -402 -3 -731 -7 -731 -4 0 -16 8 -27 18 -44 39 -199 129 -371 216 -168
85 -204 102 -310 143 -22 8 -49 19 -60 24 -28 12 -219 74 -290 94 -33 9 -71
21 -85 25 -14 5 -43 12 -65 16 -44 8 -47 8 -120 24 -257 56 -626 75 -885 45
-324 -37 -477 -72 -715 -164 -44 -17 -82 -31 -85 -31 -3 0 -7 357 -9 793 -3
670 -2 794 10 804 8 6 34 19 59 28 25 9 54 20 65 25 43 17 83 30 145 45 36 9
79 20 95 25 36 10 201 36 305 49 110 12 490 13 573 0z m2155 -932 c104 -66
403 -217 428 -217 3 0 20 -6 37 -14 18 -7 48 -20 67 -29 82 -36 313 -107 440
-136 190 -43 292 -57 495 -70 190 -12 540 9 655 39 19 5 82 21 140 35 143 36
252 73 373 130 33 14 60 25 62 23 2 -2 5 -86 6 -186 2 -211 8 -196 -106 -267
-285 -178 -680 -261 -1115 -234 -140 8 -273 24 -340 40 -25 6 -63 14 -85 19
-82 17 -181 42 -200 50 -11 4 -60 20 -110 36 -254 80 -591 240 -741 354 l-54
41 0 204 c0 113 2 205 5 205 3 0 22 -11 43 -23z m54 -828 c209 -114 431 -210
653 -283 142 -47 156 -51 245 -71 41 -9 93 -20 115 -25 87 -20 227 -39 380
-50 212 -16 559 8 735 50 19 5 73 18 120 28 125 29 267 84 352 138 21 13 40
24 43 24 3 0 5 -85 5 -190 l0 -189 -52 -34 c-195 -123 -376 -187 -683 -245
-151 -29 -470 -25 -720 8 -81 11 -435 95 -464 110 -9 5 -59 23 -111 41 -52 18
-123 45 -158 61 -34 15 -65 28 -68 28 -6 0 -79 33 -154 70 -137 67 -318 172
-332 194 -8 12 -11 386 -4 386 3 0 47 -23 98 -51z m-2027 -164 c158 -21 239
-38 415 -86 19 -6 49 -14 65 -18 212 -58 596 -225 770 -337 30 -19 57 -34 60
-34 9 0 163 -107 233 -161 l62 -49 0 -195 c0 -107 -2 -195 -4 -195 -2 0 -37
22 -78 49 -148 98 -293 177 -438 241 -52 23 -113 50 -135 60 -189 86 -532 193
-755 235 -214 41 -303 48 -595 48 -250 0 -308 -3 -421 -21 -211 -35 -368 -81
-520 -152 -47 -22 -88 -40 -90 -40 -2 0 -4 96 -4 213 l0 214 83 40 c234 116
542 194 822 207 132 6 420 -4 530 -19z m2017 -614 c77 -44 129 -70 293 -147
135 -63 384 -148 555 -191 219 -54 330 -70 564 -84 490 -29 925 54 1209 228
l37 23 0 -202 0 -203 -33 -19 c-342 -197 -647 -278 -1053 -278 -360 0 -715 70
-1083 213 -141 55 -444 204 -521 256 l-55 38 -3 208 c-1 114 -1 207 1 207 2 0
42 -22 89 -49z m-2122 -166 c188 -22 301 -43 445 -82 127 -34 341 -106 409
-137 31 -14 60 -26 63 -26 13 0 308 -148 394 -198 151 -88 332 -212 376 -261
22 -23 23 -31 23 -212 0 -119 -4 -189 -10 -189 -5 0 -10 4 -10 9 0 15 -261
174 -406 247 -229 115 -545 235 -799 305 -120 32 -282 65 -450 90 -88 14 -579
18 -650 6 -16 -3 -68 -11 -115 -17 -47 -7 -110 -19 -140 -27 -30 -8 -71 -19
-91 -24 -62 -15 -211 -70 -287 -105 -41 -19 -76 -34 -78 -34 -2 0 -4 89 -4
198 0 229 -9 208 110 267 94 48 88 45 251 100 226 76 395 102 664 103 103 1
233 -5 305 -13z m2108 -623 c232 -132 549 -254 852 -331 108 -27 146 -34 295
-61 244 -42 639 -42 875 1 223 41 408 102 587 195 l62 33 3 -182 c2 -100 2
-186 0 -192 -7 -28 -182 -129 -297 -172 -22 -8 -49 -19 -60 -23 -309 -129
-909 -156 -1347 -60 -116 25 -136 30 -188 44 -76 20 -191 55 -215 65 -11 5
-69 28 -130 51 -125 48 -335 154 -442 223 l-73 47 0 200 c0 110 2 200 5 200 3
0 36 -17 73 -38z m-2203 -157 c300 -36 602 -115 905 -235 124 -49 434 -199
505 -245 28 -17 70 -44 95 -59 63 -37 82 -49 96 -61 18 -16 144 -109 170 -125
24 -15 24 -17 24 -193 0 -140 -3 -177 -12 -171 -7 4 -26 17 -43 28 -16 12 -39
26 -50 32 -11 6 -60 35 -108 63 -48 28 -92 51 -97 51 -6 0 -10 4 -10 10 0 5
-16 12 -35 16 -19 3 -35 10 -35 15 0 5 -4 9 -9 9 -5 0 -58 23 -117 50 -60 28
-118 55 -129 59 -74 32 -95 41 -135 59 -222 100 -543 206 -775 257 -44 9 -93
21 -110 26 -153 44 -667 43 -840 -2 -104 -27 -123 -32 -170 -46 -27 -8 -61
-19 -75 -25 -14 -6 -34 -14 -45 -18 -11 -5 -64 -29 -117 -55 -54 -25 -100 -47
-104 -48 -3 -1 -5 79 -4 177 1 157 3 181 18 192 24 18 126 68 192 94 30 12 64
26 75 31 50 22 188 61 279 80 226 47 459 59 661 34z m2172 -611 c52 -36 321
-165 413 -199 41 -15 84 -31 95 -36 11 -4 58 -19 105 -33 47 -14 99 -30 115
-35 17 -5 57 -15 90 -21 33 -7 80 -16 105 -21 94 -19 222 -38 341 -51 138 -14
466 -17 574 -5 150 17 302 39 335 47 19 5 67 16 105 25 93 20 148 37 159 47 6
4 17 8 25 8 9 0 29 7 45 15 15 8 32 15 36 15 5 0 40 18 79 40 39 22 73 40 76
40 3 0 5 -79 5 -175 l0 -174 -52 -39 c-64 -47 -158 -98 -253 -136 -38 -16 -79
-32 -90 -37 -11 -5 -40 -15 -65 -22 -43 -13 -71 -21 -167 -46 -23 -6 -74 -16
-115 -22 -40 -6 -100 -15 -133 -20 -117 -19 -353 -21 -500 -4 -252 29 -277 33
-430 69 -118 28 -373 110 -450 145 -11 5 -38 17 -60 26 -121 53 -353 175 -402
212 l-33 24 0 195 c0 106 2 194 5 194 2 0 21 -12 42 -26z"/>
</g>
</svg>
